<svg width="149" height="48" viewBox="0 0 149 48" fill="none" xmlns="http://www.w3.org/2000/svg">
<rect width="149" height="48" rx="5" fill="#CE4141"/>
<path d="M56.1426 31V18.2031H60.625C62.1777 18.2031 63.3555 18.502 64.1582 19.0996C64.9609 19.6914 65.3623 20.5615 65.3623 21.71C65.3623 22.3369 65.2012 22.8906 64.8789 23.3711C64.5566 23.8457 64.1084 24.1943 63.5342 24.417C64.1904 24.5811 64.7061 24.9121 65.0811 25.4102C65.4619 25.9082 65.6523 26.5176 65.6523 27.2383C65.6523 28.4688 65.2598 29.4004 64.4746 30.0332C63.6895 30.666 62.5703 30.9883 61.1172 31H56.1426ZM58.7793 25.4277V28.8818H61.0381C61.6592 28.8818 62.1426 28.7354 62.4883 28.4424C62.8398 28.1436 63.0156 27.7334 63.0156 27.2119C63.0156 26.04 62.4092 25.4453 61.1963 25.4277H58.7793ZM58.7793 23.5645H60.7305C62.0605 23.541 62.7256 23.0107 62.7256 21.9736C62.7256 21.3936 62.5557 20.9775 62.2158 20.7256C61.8818 20.4678 61.3516 20.3389 60.625 20.3389H58.7793V23.5645ZM72.807 30.0332C72.18 30.7949 71.3129 31.1758 70.2054 31.1758C69.1859 31.1758 68.4066 30.8828 67.8675 30.2969C67.3343 29.7109 67.0619 28.8525 67.0502 27.7217V21.4902H69.5902V27.6338C69.5902 28.624 70.0414 29.1191 70.9437 29.1191C71.805 29.1191 72.3968 28.8203 72.7191 28.2227V21.4902H75.2679V31H72.8773L72.807 30.0332ZM80.3747 27.4053L82.1325 21.4902H84.8571L81.0339 32.4766L80.823 32.9775C80.2546 34.2197 79.3171 34.8408 78.0105 34.8408C77.6413 34.8408 77.2663 34.7852 76.8855 34.6738V32.749L77.2722 32.7578C77.7527 32.7578 78.1101 32.6846 78.3445 32.5381C78.5847 32.3916 78.7722 32.1484 78.907 31.8086L79.2058 31.0264L75.8747 21.4902H78.6081L80.3747 27.4053ZM92.4252 26.4912V31H89.7885V18.2031H94.7807C95.7416 18.2031 96.5854 18.3789 97.312 18.7305C98.0444 19.082 98.6069 19.583 98.9995 20.2334C99.392 20.8779 99.5883 21.6133 99.5883 22.4395C99.5883 23.6934 99.1577 24.6836 98.2963 25.4102C97.4409 26.1309 96.2543 26.4912 94.7368 26.4912H92.4252ZM92.4252 24.3555H94.7807C95.478 24.3555 96.0082 24.1914 96.3715 23.8633C96.7407 23.5352 96.9252 23.0664 96.9252 22.457C96.9252 21.8301 96.7407 21.3232 96.3715 20.9365C96.0024 20.5498 95.4926 20.3506 94.8422 20.3389H92.4252V24.3555ZM103.851 31H101.215V18.2031H103.851V31ZM116.35 31H113.713L108.58 22.5801V31H105.944V18.2031H108.58L113.722 26.6406V18.2031H116.35V31Z" fill="white"/>
<path d="M40.0935 31.7875C37.6196 30.3592 38.0727 28.0499 38.7294 26.9124L38.9882 26.4642C39.0024 26.4397 38.9954 26.406 38.968 26.399C38.9639 26.3979 38.9591 26.3964 38.9553 26.3945C38.6874 26.2641 38.4139 26.1301 38.1811 25.9957C37.885 25.8248 37.6629 25.6965 37.6629 25.6965C37.6629 25.6965 37.6629 25.6965 37.6629 25.6965C37.2002 25.4294 37.0319 24.8375 37.2988 24.3752L37.7518 23.5906C37.9941 23.1709 38.3948 22.648 39.3503 22.2751C39.506 22.2162 39.6717 22.1693 39.8496 22.1348C40.1884 22.069 40.5027 21.889 40.6753 21.5901L41.1746 20.7254C41.1805 20.7151 41.177 20.7021 41.1668 20.6962C40.593 20.3649 40.3911 19.6319 40.7176 19.0663L40.974 18.6222C41.3006 18.0566 42.0364 17.865 42.6101 18.1962L47.6257 21.092C48.1995 21.4233 48.4014 22.1562 48.0749 22.7219L47.8185 23.1659C47.4919 23.7316 46.7561 23.9232 46.1824 23.5919C46.1722 23.586 46.1591 23.5896 46.1532 23.5998L45.6528 24.4666C45.4789 24.7678 45.4809 25.1332 45.5933 25.4623C45.6513 25.6321 45.6934 25.7988 45.7197 25.9606C45.8843 26.972 45.622 27.583 45.3797 28.0027L44.9302 28.7812C44.6668 29.2374 44.0728 29.3973 43.6039 29.1266L42.7217 28.6172C42.5305 28.5068 42.464 28.2657 42.5729 28.0772C42.6817 27.8886 42.9238 27.8256 43.115 27.936L44.0034 28.4489C44.0898 28.4988 44.1963 28.471 44.2454 28.3859L44.6984 27.6012C44.8881 27.2728 45.0643 26.8393 44.9407 26.0704C44.8926 25.7831 44.7732 25.4628 44.5781 25.1312C44.5083 25.0098 44.5099 24.8647 44.5801 24.743L45.6722 22.8514C45.7811 22.6628 46.0231 22.5998 46.2144 22.7102L46.5784 22.9203C46.7758 23.0343 47.0213 22.9652 47.1302 22.7767L47.3865 22.3326C47.4989 22.138 47.4263 21.8933 47.2351 21.7829L42.2194 18.8871C42.022 18.7732 41.7765 18.8423 41.6676 19.0308L41.4113 19.4748C41.2989 19.6695 41.3715 19.9142 41.5627 20.0246L41.9267 20.2347C42.118 20.3451 42.1844 20.5862 42.0756 20.7748L40.9834 22.6665C40.9132 22.7881 40.7883 22.862 40.6483 22.8623C40.26 22.8652 39.9264 22.9159 39.6536 23.0179C38.9259 23.2952 38.6386 23.6646 38.4489 23.9931L37.9959 24.7777C37.9468 24.8629 37.976 24.969 38.0624 25.0188C38.0624 25.0188 38.0624 25.0188 38.0624 25.0188C38.0624 25.0188 38.2845 25.1471 38.5806 25.318C38.7903 25.4391 39.0538 25.5669 39.3111 25.6912C39.3658 25.7227 39.4389 25.6978 39.4705 25.6431L40.049 24.6411C40.3518 24.1023 41.2785 23.2667 42.5308 23.9897C43.0799 24.3067 43.4171 24.8339 43.4507 25.4454C43.4888 26.0918 43.1843 26.7189 42.6584 27.0884C41.9899 27.5631 41.0451 27.337 40.2922 27.0311C39.9701 26.9003 39.5942 27.0103 39.4204 27.3114C39.3466 27.4391 38.9823 28.1128 39.011 28.9322C39.0451 29.8278 39.5402 30.5516 40.4903 31.1001C42.1067 32.0333 43.4754 31.7855 43.9252 31.7045C43.9604 31.7005 43.9894 31.693 44.015 31.6915C46.3705 31.3159 48.4056 29.9281 49.5891 27.8783C51.762 24.1289 50.4191 19.2742 46.6065 17.073C42.7939 14.8718 37.9181 16.1361 35.7479 19.8952C34.2273 22.5289 34.3904 25.8509 36.1591 28.3724C36.2862 28.5512 36.2443 28.7947 36.0658 28.9187C35.8873 29.0427 35.6415 28.9982 35.5144 28.8193C34.5692 27.4788 34.0216 25.9056 33.9255 24.2768C33.8285 22.6069 34.2237 20.9535 35.0631 19.4998C37.4511 15.3637 42.8047 13.9697 46.9998 16.3917C51.1949 18.8138 52.6645 24.1471 50.2765 28.2833C48.9772 30.5338 46.7433 32.0664 44.1475 32.4736C44.1281 32.4786 44.1026 32.4801 44.0735 32.4877C42.6758 32.7431 41.3397 32.5069 40.0935 31.7875ZM42.1375 24.671C41.3047 24.1901 40.8532 24.8297 40.7338 25.0365C40.4038 25.608 40.6212 26.3778 41.2654 26.521C41.6235 26.6006 41.9626 26.6048 42.1907 26.4453C42.495 26.2317 42.6748 25.849 42.6601 25.4755C42.6412 25.2375 42.5385 24.9025 42.1375 24.671Z" fill="white"/>
</svg>
