<svg width="750" height="60" viewBox="0 0 750 60" fill="none" xmlns="http://www.w3.org/2000/svg">
<rect y="2.36914" width="750" height="55" rx="5" fill="#171717"/>
<path d="M705.559 50.688C699.222 47.0292 700.382 41.1137 702.065 38.2L702.727 37.0519C702.764 36.989 702.746 36.9028 702.676 36.8847C702.665 36.882 702.653 36.8781 702.643 36.8734C701.957 36.5392 701.256 36.196 700.66 35.8518C699.901 35.4138 699.333 35.0853 699.333 35.0853C698.147 34.401 697.716 32.8849 698.4 31.7007L699.56 29.6907C700.181 28.6156 701.207 27.2761 703.655 26.321C704.054 26.1699 704.478 26.05 704.934 25.9615C705.802 25.793 706.607 25.332 707.049 24.5663L708.328 22.3511C708.343 22.3249 708.334 22.2914 708.308 22.2763C706.838 21.4278 706.321 19.5502 707.158 18.1011L707.814 16.9637C708.651 15.5146 710.536 15.0239 712.005 15.8724L724.854 23.2903C726.323 24.1389 726.841 26.0165 726.004 27.4655L725.347 28.603C724.511 30.052 722.626 30.5427 721.156 29.6942C721.13 29.6791 721.097 29.6881 721.082 29.7142L719.8 31.9346C719.354 32.7062 719.359 33.6423 719.647 34.4854C719.796 34.9203 719.904 35.3474 719.971 35.7617C720.393 38.3527 719.721 39.9177 719.1 40.9928L717.949 42.9872C717.274 44.1558 715.752 44.5653 714.551 43.8718L712.291 42.5671C711.801 42.2842 711.631 41.6666 711.91 41.1836C712.189 40.7006 712.809 40.5392 713.299 40.822L715.575 42.1359C715.796 42.2636 716.069 42.1926 716.195 41.9744L717.355 39.9645C717.841 39.1231 718.292 38.0126 717.975 36.0431C717.852 35.3072 717.547 34.4866 717.047 33.6371C716.868 33.3262 716.872 32.9545 717.052 32.6428L719.85 27.7971C720.128 27.3141 720.748 27.1526 721.238 27.4355L722.171 27.9738C722.676 28.2658 723.305 28.0888 723.584 27.6058L724.241 26.4683C724.529 25.9697 724.343 25.343 723.853 25.0601L711.005 17.6422C710.499 17.3503 709.87 17.5273 709.591 18.0103L708.935 19.1477C708.647 19.6463 708.833 20.2731 709.323 20.5559L710.255 21.0943C710.745 21.3771 710.915 21.9947 710.636 22.4777L707.838 27.3235C707.659 27.6351 707.339 27.8244 706.98 27.8251C705.985 27.8325 705.131 27.9623 704.432 28.2237C702.568 28.9341 701.832 29.8804 701.346 30.7218L700.186 32.7317C700.06 32.9499 700.135 33.2216 700.356 33.3494C700.356 33.3494 700.925 33.6778 701.683 34.1158C702.221 34.426 702.896 34.7534 703.555 35.0716C703.695 35.1524 703.882 35.0885 703.963 34.9485L705.445 32.3818C706.221 31.0015 708.594 28.861 711.802 30.7132C713.209 31.5252 714.073 32.8757 714.159 34.442C714.256 36.0979 713.476 37.7044 712.129 38.6509C710.417 39.8668 707.996 39.2876 706.068 38.5041C705.243 38.1689 704.28 38.4508 703.835 39.2219C703.646 39.5491 702.713 41.2749 702.786 43.374C702.873 45.6681 704.142 47.5222 706.575 48.9273C710.716 51.3178 714.222 50.6829 715.374 50.4756C715.464 50.4653 715.539 50.446 715.604 50.4422C721.638 49.4801 726.851 45.925 729.883 40.6742C735.449 31.0697 732.009 18.6338 722.243 12.9951C712.476 7.35641 699.986 10.5952 694.427 20.2244C690.532 26.9711 690.95 35.4808 695.48 41.94C695.806 42.398 695.699 43.0217 695.241 43.3393C694.784 43.657 694.155 43.5429 693.829 43.0848C691.408 39.6509 690.005 35.6209 689.759 31.4485C689.51 27.1708 690.523 22.9355 692.673 19.2116C698.79 8.61641 712.504 5.04562 723.25 11.25C733.997 17.4544 737.761 31.1164 731.644 41.7116C728.315 47.4767 722.593 51.4026 715.944 52.4456C715.894 52.4585 715.829 52.4623 715.754 52.4816C712.174 53.1359 708.751 52.5311 705.559 50.688ZM710.795 32.4583C708.661 31.2265 707.505 32.8648 707.199 33.3946C706.354 34.8586 706.911 36.8305 708.561 37.1974C709.478 37.4013 710.347 37.412 710.931 37.0035C711.711 36.4563 712.171 35.4758 712.134 34.5192C712.085 33.9096 711.822 33.0513 710.795 32.4583Z" fill="#CE4141"/>
<path d="M22.5586 33.3516V42.3691H17.2852V16.7754H27.2695C29.1914 16.7754 30.8789 17.127 32.332 17.8301C33.7969 18.5332 34.9219 19.5352 35.707 20.8359C36.4922 22.125 36.8848 23.5957 36.8848 25.248C36.8848 27.7559 36.0234 29.7363 34.3008 31.1895C32.5898 32.6309 30.2168 33.3516 27.1816 33.3516H22.5586ZM22.5586 29.0801H27.2695C28.6641 29.0801 29.7246 28.752 30.4512 28.0957C31.1895 27.4395 31.5586 26.502 31.5586 25.2832C31.5586 24.0293 31.1895 23.0156 30.4512 22.2422C29.7129 21.4688 28.6934 21.0703 27.3926 21.0469H22.5586V29.0801ZM45.4109 42.3691H40.1374V16.7754H45.4109V42.3691ZM70.4077 42.3691H65.1342L54.8686 25.5293V42.3691H49.5952V16.7754H54.8686L65.1518 33.6504V16.7754H70.4077V42.3691ZM95.8095 35.6543C95.8095 34.6582 95.4579 33.8965 94.7548 33.3691C94.0516 32.8301 92.786 32.2676 90.9579 31.6816C89.1298 31.084 87.6825 30.498 86.6161 29.9238C83.7098 28.3535 82.2567 26.2383 82.2567 23.5781C82.2567 22.1953 82.6434 20.9648 83.4169 19.8867C84.202 18.7969 85.3212 17.9473 86.7743 17.3379C88.2391 16.7285 89.8798 16.4238 91.6962 16.4238C93.5243 16.4238 95.1532 16.7578 96.5829 17.4258C98.0126 18.082 99.12 19.0137 99.9052 20.2207C100.702 21.4277 101.1 22.7988 101.1 24.334H95.827C95.827 23.1621 95.4579 22.2539 94.7196 21.6094C93.9813 20.9531 92.9442 20.625 91.6083 20.625C90.3192 20.625 89.3173 20.9004 88.6024 21.4512C87.8876 21.9902 87.5302 22.7051 87.5302 23.5957C87.5302 24.4277 87.9462 25.125 88.7782 25.6875C89.622 26.25 90.8583 26.7773 92.4872 27.2695C95.4872 28.1719 97.6727 29.291 99.0438 30.627C100.415 31.9629 101.1 33.627 101.1 35.6191C101.1 37.834 100.263 39.5742 98.5868 40.8398C96.911 42.0938 94.6552 42.7207 91.8192 42.7207C89.8505 42.7207 88.0575 42.3633 86.4403 41.6484C84.8231 40.9219 83.5868 39.9316 82.7313 38.6777C81.8876 37.4238 81.4657 35.9707 81.4657 34.3184H86.7567C86.7567 37.1426 88.4442 38.5547 91.8192 38.5547C93.0731 38.5547 94.0516 38.3027 94.7548 37.7988C95.4579 37.2832 95.8095 36.5684 95.8095 35.6543ZM102.841 32.6836C102.841 30.7969 103.205 29.1152 103.931 27.6387C104.658 26.1621 105.701 25.0195 107.06 24.2109C108.431 23.4023 110.019 22.998 111.824 22.998C114.39 22.998 116.482 23.7832 118.099 25.3535C119.728 26.9238 120.636 29.0566 120.824 31.752L120.859 33.0527C120.859 35.9707 120.045 38.3145 118.416 40.084C116.787 41.8418 114.601 42.7207 111.859 42.7207C109.117 42.7207 106.925 41.8418 105.285 40.084C103.656 38.3262 102.841 35.9355 102.841 32.9121V32.6836ZM107.921 33.0527C107.921 34.8574 108.261 36.2402 108.941 37.2012C109.621 38.1504 110.593 38.625 111.859 38.625C113.089 38.625 114.05 38.1562 114.742 37.2188C115.433 36.2695 115.779 34.7578 115.779 32.6836C115.779 30.9141 115.433 29.543 114.742 28.5703C114.05 27.5977 113.078 27.1113 111.824 27.1113C110.582 27.1113 109.621 27.5977 108.941 28.5703C108.261 29.5312 107.921 31.0254 107.921 33.0527ZM131.178 38.625C132.116 38.625 132.877 38.3672 133.463 37.8516C134.049 37.3359 134.354 36.6504 134.377 35.7949H139.141C139.129 37.084 138.778 38.2676 138.086 39.3457C137.395 40.4121 136.446 41.2441 135.239 41.8418C134.043 42.4277 132.719 42.7207 131.266 42.7207C128.547 42.7207 126.403 41.8594 124.832 40.1367C123.262 38.4023 122.477 36.0117 122.477 32.9648V32.6309C122.477 29.7012 123.256 27.3633 124.815 25.6172C126.373 23.8711 128.512 22.998 131.231 22.998C133.61 22.998 135.514 23.6777 136.944 25.0371C138.385 26.3848 139.118 28.1836 139.141 30.4336H134.377C134.354 29.4492 134.049 28.6523 133.463 28.043C132.877 27.4219 132.104 27.1113 131.143 27.1113C129.959 27.1113 129.063 27.5449 128.453 28.4121C127.856 29.2676 127.557 30.6621 127.557 32.5957V33.123C127.557 35.0801 127.856 36.4863 128.453 37.3418C129.051 38.1973 129.959 38.625 131.178 38.625ZM146.683 42.3691H141.585V23.3496H146.683V42.3691ZM141.286 18.4277C141.286 17.666 141.538 17.0391 142.042 16.5469C142.558 16.0547 143.255 15.8086 144.134 15.8086C145.001 15.8086 145.692 16.0547 146.208 16.5469C146.724 17.0391 146.981 17.666 146.981 18.4277C146.981 19.2012 146.718 19.834 146.19 20.3262C145.675 20.8184 144.989 21.0645 144.134 21.0645C143.278 21.0645 142.587 20.8184 142.06 20.3262C141.544 19.834 141.286 19.2012 141.286 18.4277ZM161.185 42.3691C160.951 41.9121 160.781 41.3438 160.676 40.6641C159.445 42.0352 157.845 42.7207 155.877 42.7207C154.013 42.7207 152.467 42.1816 151.236 41.1035C150.017 40.0254 149.408 38.666 149.408 37.0254C149.408 35.0098 150.152 33.4629 151.64 32.3848C153.14 31.3066 155.303 30.7617 158.127 30.75H160.465V29.6602C160.465 28.7812 160.236 28.0781 159.779 27.5508C159.334 27.0234 158.625 26.7598 157.652 26.7598C156.797 26.7598 156.123 26.9648 155.631 27.375C155.15 27.7852 154.91 28.3477 154.91 29.0625H149.83C149.83 27.9609 150.17 26.9414 150.849 26.0039C151.529 25.0664 152.49 24.334 153.732 23.8066C154.974 23.2676 156.369 22.998 157.916 22.998C160.26 22.998 162.117 23.5898 163.488 24.7734C164.871 25.9453 165.562 27.5977 165.562 29.7305V37.9746C165.574 39.7793 165.826 41.1445 166.318 42.0703V42.3691H161.185ZM156.984 38.8359C157.734 38.8359 158.426 38.6719 159.058 38.3438C159.691 38.0039 160.16 37.5527 160.465 36.9902V33.7207H158.566C156.023 33.7207 154.67 34.5996 154.506 36.3574L154.488 36.6562C154.488 37.2891 154.711 37.8105 155.156 38.2207C155.601 38.6309 156.211 38.8359 156.984 38.8359ZM174.106 42.3691H169.008V15.3691H174.106V42.3691ZM193.057 16.7754L199.631 35.3379L206.17 16.7754H213.096V42.3691H207.805V35.373L208.332 23.2969L201.424 42.3691H197.803L190.912 23.3145L191.439 35.373V42.3691H186.166V16.7754H193.057ZM225.401 42.7207C222.612 42.7207 220.339 41.8652 218.581 40.1543C216.835 38.4434 215.962 36.1641 215.962 33.3164V32.8242C215.962 30.9141 216.331 29.209 217.069 27.709C217.807 26.1973 218.85 25.0371 220.198 24.2285C221.557 23.4082 223.104 22.998 224.839 22.998C227.44 22.998 229.485 23.8184 230.973 25.459C232.473 27.0996 233.223 29.4258 233.223 32.4375V34.5117H221.112C221.276 35.7539 221.768 36.75 222.589 37.5C223.421 38.25 224.469 38.625 225.735 38.625C227.692 38.625 229.221 37.916 230.323 36.498L232.819 39.293C232.057 40.3711 231.026 41.2148 229.725 41.8242C228.424 42.4219 226.983 42.7207 225.401 42.7207ZM224.821 27.1113C223.813 27.1113 222.993 27.4512 222.36 28.1309C221.739 28.8105 221.34 29.7832 221.165 31.0488H228.231V30.6445C228.208 29.5195 227.903 28.6523 227.317 28.043C226.731 27.4219 225.899 27.1113 224.821 27.1113ZM234.613 32.7188C234.613 29.7539 235.275 27.3926 236.599 25.6348C237.935 23.877 239.757 22.998 242.066 22.998C243.917 22.998 245.447 23.6895 246.654 25.0723V15.3691H251.751V42.3691H247.163L246.917 40.3477C245.652 41.9297 244.023 42.7207 242.031 42.7207C239.792 42.7207 237.994 41.8418 236.634 40.084C235.286 38.3145 234.613 35.8594 234.613 32.7188ZM239.693 33.0879C239.693 34.8691 240.003 36.2344 240.624 37.1836C241.245 38.1328 242.148 38.6074 243.331 38.6074C244.902 38.6074 246.009 37.9453 246.654 36.6211V29.1152C246.021 27.791 244.925 27.1289 243.367 27.1289C240.917 27.1289 239.693 29.1152 239.693 33.0879ZM260.33 42.3691H255.232V23.3496H260.33V42.3691ZM254.934 18.4277C254.934 17.666 255.186 17.0391 255.69 16.5469C256.205 16.0547 256.902 15.8086 257.781 15.8086C258.649 15.8086 259.34 16.0547 259.856 16.5469C260.371 17.0391 260.629 17.666 260.629 18.4277C260.629 19.2012 260.365 19.834 259.838 20.3262C259.322 20.8184 258.637 21.0645 257.781 21.0645C256.926 21.0645 256.234 20.8184 255.707 20.3262C255.191 19.834 254.934 19.2012 254.934 18.4277ZM274.833 42.3691C274.598 41.9121 274.429 41.3438 274.323 40.6641C273.093 42.0352 271.493 42.7207 269.524 42.7207C267.661 42.7207 266.114 42.1816 264.884 41.1035C263.665 40.0254 263.055 38.666 263.055 37.0254C263.055 35.0098 263.8 33.4629 265.288 32.3848C266.788 31.3066 268.95 30.7617 271.774 30.75H274.112V29.6602C274.112 28.7812 273.884 28.0781 273.427 27.5508C272.981 27.0234 272.272 26.7598 271.3 26.7598C270.444 26.7598 269.77 26.9648 269.278 27.375C268.798 27.7852 268.557 28.3477 268.557 29.0625H263.477C263.477 27.9609 263.817 26.9414 264.497 26.0039C265.177 25.0664 266.137 24.334 267.38 23.8066C268.622 23.2676 270.016 22.998 271.563 22.998C273.907 22.998 275.764 23.5898 277.136 24.7734C278.518 25.9453 279.21 27.5977 279.21 29.7305V37.9746C279.221 39.7793 279.473 41.1445 279.966 42.0703V42.3691H274.833ZM270.632 38.8359C271.382 38.8359 272.073 38.6719 272.706 38.3438C273.339 38.0039 273.807 37.5527 274.112 36.9902V33.7207H272.214C269.671 33.7207 268.317 34.5996 268.153 36.3574L268.136 36.6562C268.136 37.2891 268.358 37.8105 268.804 38.2207C269.249 38.6309 269.858 38.8359 270.632 38.8359Z" fill="white"/>
<line x1="15" y1="48.8691" x2="358" y2="48.8691" stroke="url(#paint0_linear)"/>
<defs>
<linearGradient id="paint0_linear" x1="15" y1="49.3691" x2="364.191" y2="49.3691" gradientUnits="userSpaceOnUse">
<stop stop-color="#CE4141"/>
<stop offset="1" stop-color="#CE4141" stop-opacity="0"/>
</linearGradient>
</defs>
</svg>
