<svg width="190" height="48" viewBox="0 0 190 48" fill="none" xmlns="http://www.w3.org/2000/svg">
<rect width="190" height="48" rx="5" fill="#171717"/>
<path d="M58.7783 27.6426C58.7783 27.1445 58.6025 26.7637 58.251 26.5C57.8994 26.2305 57.2666 25.9492 56.3525 25.6562C55.4385 25.3574 54.7148 25.0645 54.1816 24.7773C52.7285 23.9922 52.002 22.9346 52.002 21.6045C52.002 20.9131 52.1953 20.2979 52.582 19.7588C52.9746 19.2139 53.5342 18.7891 54.2607 18.4844C54.9932 18.1797 55.8135 18.0273 56.7217 18.0273C57.6357 18.0273 58.4502 18.1943 59.165 18.5283C59.8799 18.8564 60.4336 19.3223 60.8262 19.9258C61.2246 20.5293 61.4238 21.2148 61.4238 21.9824H58.7871C58.7871 21.3965 58.6025 20.9424 58.2334 20.6201C57.8643 20.292 57.3457 20.1279 56.6777 20.1279C56.0332 20.1279 55.5322 20.2656 55.1748 20.541C54.8174 20.8105 54.6387 21.168 54.6387 21.6133C54.6387 22.0293 54.8467 22.3779 55.2627 22.6592C55.6846 22.9404 56.3027 23.2041 57.1172 23.4502C58.6172 23.9014 59.71 24.4609 60.3955 25.1289C61.0811 25.7969 61.4238 26.6289 61.4238 27.625C61.4238 28.7324 61.0049 29.6025 60.167 30.2354C59.3291 30.8623 58.2012 31.1758 56.7832 31.1758C55.7988 31.1758 54.9023 30.9971 54.0938 30.6396C53.2852 30.2764 52.667 29.7812 52.2393 29.1543C51.8174 28.5273 51.6064 27.8008 51.6064 26.9746H54.252C54.252 28.3867 55.0957 29.0928 56.7832 29.0928C57.4102 29.0928 57.8994 28.9668 58.251 28.7148C58.6025 28.457 58.7783 28.0996 58.7783 27.6426ZM70.9603 27.5459L72.2084 21.4902H74.6605L72.2347 31H70.1078L68.306 25.0146L66.5043 31H64.3861L61.9603 21.4902H64.4125L65.6517 27.5371L67.392 21.4902H69.2289L70.9603 27.5459ZM81.0769 31C80.9597 30.7715 80.8747 30.4873 80.822 30.1475C80.2068 30.833 79.407 31.1758 78.4226 31.1758C77.4909 31.1758 76.7175 30.9062 76.1023 30.3672C75.4929 29.8281 75.1882 29.1484 75.1882 28.3281C75.1882 27.3203 75.5603 26.5469 76.3044 26.0078C77.0544 25.4688 78.1355 25.1963 79.5476 25.1904H80.7165V24.6455C80.7165 24.2061 80.6023 23.8545 80.3738 23.5908C80.1511 23.3271 79.7966 23.1953 79.3103 23.1953C78.8825 23.1953 78.5456 23.2979 78.2995 23.5029C78.0593 23.708 77.9392 23.9893 77.9392 24.3467H75.3991C75.3991 23.7959 75.5691 23.2861 75.9089 22.8174C76.2488 22.3486 76.7292 21.9824 77.3503 21.7188C77.9714 21.4492 78.6687 21.3145 79.4421 21.3145C80.614 21.3145 81.5427 21.6104 82.2282 22.2021C82.9196 22.7881 83.2654 23.6143 83.2654 24.6807V28.8027C83.2712 29.7051 83.3972 30.3877 83.6433 30.8506V31H81.0769ZM78.9763 29.2334C79.3513 29.2334 79.697 29.1514 80.0134 28.9873C80.3298 28.8174 80.5642 28.5918 80.7165 28.3105V26.6758H79.7673C78.4958 26.6758 77.8191 27.1152 77.737 27.9941L77.7282 28.1436C77.7282 28.46 77.8396 28.7207 78.0622 28.9258C78.2849 29.1309 78.5896 29.2334 78.9763 29.2334ZM93.4171 26.333C93.4171 27.7979 93.0831 28.9727 92.4151 29.8574C91.753 30.7363 90.8565 31.1758 89.7257 31.1758C88.7647 31.1758 87.9884 30.8418 87.3966 30.1738V34.6562H84.8565V21.4902H87.212L87.2999 22.4219C87.9151 21.6836 88.7178 21.3145 89.7081 21.3145C90.88 21.3145 91.7911 21.748 92.4415 22.6152C93.0919 23.4824 93.4171 24.6777 93.4171 26.2012V26.333ZM90.877 26.1484C90.877 25.2637 90.7188 24.5811 90.4024 24.1006C90.0919 23.6201 89.6378 23.3799 89.0401 23.3799C88.2432 23.3799 87.6954 23.6846 87.3966 24.2939V28.1875C87.7071 28.8145 88.2608 29.1279 89.0577 29.1279C90.2706 29.1279 90.877 28.1348 90.877 26.1484ZM106.628 25.7705H101.565V31H98.9285V18.2031H107.261V20.3389H101.565V23.6436H106.628V25.7705ZM111.067 28.8818H116.665V31H108.43V18.2031H111.067V28.8818ZM127.775 24.8916C127.775 26.1514 127.552 27.2559 127.107 28.2051C126.662 29.1543 126.023 29.8867 125.191 30.4023C124.365 30.918 123.416 31.1758 122.343 31.1758C121.283 31.1758 120.336 30.9209 119.504 30.4111C118.672 29.9014 118.028 29.1748 117.571 28.2314C117.114 27.2822 116.882 26.1924 116.876 24.9619V24.3291C116.876 23.0693 117.102 21.9619 117.553 21.0068C118.01 20.0459 118.652 19.3105 119.478 18.8008C120.31 18.2852 121.259 18.0273 122.326 18.0273C123.392 18.0273 124.338 18.2852 125.165 18.8008C125.997 19.3105 126.638 20.0459 127.089 21.0068C127.546 21.9619 127.775 23.0664 127.775 24.3203V24.8916ZM125.103 24.3115C125.103 22.9697 124.863 21.9502 124.382 21.2529C123.902 20.5557 123.216 20.207 122.326 20.207C121.441 20.207 120.758 20.5527 120.278 21.2441C119.797 21.9297 119.554 22.9375 119.548 24.2676V24.8916C119.548 26.1982 119.789 27.2119 120.269 27.9326C120.75 28.6533 121.441 29.0137 122.343 29.0137C123.228 29.0137 123.908 28.668 124.382 27.9766C124.857 27.2793 125.097 26.2656 125.103 24.9355V24.3115ZM134.103 26.5439H129.155V24.4961H134.103V26.5439ZM138.586 26.4912V31H135.949V18.2031H140.942C141.903 18.2031 142.746 18.3789 143.473 18.7305C144.205 19.082 144.768 19.583 145.16 20.2334C145.553 20.8779 145.749 21.6133 145.749 22.4395C145.749 23.6934 145.319 24.6836 144.457 25.4102C143.602 26.1309 142.415 26.4912 140.898 26.4912H138.586ZM138.586 24.3555H140.942C141.639 24.3555 142.169 24.1914 142.532 23.8633C142.902 23.5352 143.086 23.0664 143.086 22.457C143.086 21.8301 142.902 21.3232 142.532 20.9365C142.163 20.5498 141.654 20.3506 141.003 20.3389H138.586V24.3555ZM150.012 31H147.376V18.2031H150.012V31ZM162.511 31H159.874L154.741 22.5801V31H152.104V18.2031H154.741L159.883 26.6406V18.2031H162.511V31Z" fill="white"/>
<path d="M36.0935 31.7875C33.6196 30.3592 34.0727 28.0499 34.7294 26.9124L34.9882 26.4642C35.0024 26.4397 34.9954 26.406 34.968 26.399C34.9639 26.3979 34.9591 26.3964 34.9553 26.3945C34.6874 26.2641 34.4139 26.1301 34.1811 25.9957C33.885 25.8248 33.6629 25.6965 33.6629 25.6965C33.6629 25.6965 33.6629 25.6965 33.6629 25.6965C33.2002 25.4294 33.0319 24.8375 33.2988 24.3752L33.7518 23.5906C33.9941 23.1709 34.3948 22.648 35.3503 22.2751C35.506 22.2162 35.6717 22.1693 35.8496 22.1348C36.1884 22.069 36.5027 21.889 36.6753 21.5901L37.1746 20.7254C37.1805 20.7151 37.177 20.7021 37.1668 20.6962C36.593 20.3649 36.3911 19.6319 36.7176 19.0663L36.974 18.6222C37.3006 18.0566 38.0364 17.865 38.6101 18.1962L43.6257 21.092C44.1995 21.4233 44.4014 22.1562 44.0749 22.7219L43.8185 23.1659C43.4919 23.7316 42.7561 23.9232 42.1824 23.5919C42.1722 23.586 42.1591 23.5896 42.1532 23.5998L41.6528 24.4666C41.4789 24.7678 41.4809 25.1332 41.5933 25.4623C41.6513 25.6321 41.6934 25.7988 41.7197 25.9606C41.8843 26.972 41.622 27.583 41.3797 28.0027L40.9302 28.7812C40.6668 29.2374 40.0728 29.3973 39.6039 29.1266L38.7217 28.6172C38.5305 28.5068 38.464 28.2657 38.5729 28.0772C38.6817 27.8886 38.9238 27.8256 39.115 27.936L40.0034 28.4489C40.0898 28.4988 40.1963 28.471 40.2454 28.3859L40.6984 27.6012C40.8881 27.2728 41.0643 26.8393 40.9407 26.0704C40.8926 25.7831 40.7732 25.4628 40.5781 25.1312C40.5083 25.0098 40.5099 24.8647 40.5801 24.743L41.6722 22.8514C41.7811 22.6628 42.0231 22.5998 42.2144 22.7102L42.5784 22.9203C42.7758 23.0343 43.0213 22.9652 43.1302 22.7767L43.3865 22.3326C43.4989 22.138 43.4263 21.8933 43.2351 21.7829L38.2194 18.8871C38.022 18.7732 37.7765 18.8423 37.6676 19.0308L37.4113 19.4748C37.2989 19.6695 37.3715 19.9142 37.5627 20.0246L37.9267 20.2347C38.118 20.3451 38.1844 20.5862 38.0756 20.7748L36.9834 22.6665C36.9132 22.7881 36.7883 22.862 36.6483 22.8623C36.26 22.8652 35.9264 22.9159 35.6536 23.0179C34.9259 23.2952 34.6386 23.6646 34.4489 23.9931L33.9959 24.7777C33.9468 24.8629 33.976 24.969 34.0624 25.0188C34.0624 25.0188 34.0624 25.0188 34.0624 25.0188C34.0624 25.0188 34.2845 25.1471 34.5806 25.318C34.7903 25.4391 35.0538 25.5669 35.3111 25.6912C35.3658 25.7227 35.4389 25.6978 35.4705 25.6431L36.049 24.6411C36.3518 24.1023 37.2785 23.2667 38.5308 23.9897C39.0799 24.3067 39.4171 24.8339 39.4507 25.4454C39.4888 26.0918 39.1843 26.7189 38.6584 27.0884C37.9899 27.5631 37.0451 27.337 36.2922 27.0311C35.9701 26.9003 35.5942 27.0103 35.4204 27.3114C35.3466 27.4391 34.9823 28.1128 35.011 28.9322C35.0451 29.8278 35.5402 30.5516 36.4903 31.1001C38.1067 32.0333 39.4754 31.7855 39.9252 31.7045C39.9604 31.7005 39.9894 31.693 40.015 31.6915C42.3705 31.3159 44.4056 29.9281 45.5891 27.8783C47.762 24.1289 46.4191 19.2742 42.6065 17.073C38.7939 14.8718 33.9181 16.1361 31.7479 19.8952C30.2273 22.5289 30.3904 25.8509 32.1591 28.3724C32.2862 28.5512 32.2443 28.7947 32.0658 28.9187C31.8873 29.0427 31.6415 28.9982 31.5144 28.8193C30.5692 27.4788 30.0216 25.9056 29.9255 24.2768C29.8285 22.6069 30.2237 20.9535 31.0631 19.4998C33.4511 15.3637 38.8047 13.9697 42.9998 16.3917C47.1949 18.8138 48.6645 24.1471 46.2765 28.2833C44.9772 30.5338 42.7433 32.0664 40.1475 32.4736C40.1281 32.4786 40.1026 32.4801 40.0735 32.4877C38.6758 32.7431 37.3397 32.5069 36.0935 31.7875ZM38.1375 24.671C37.3047 24.1901 36.8532 24.8297 36.7338 25.0365C36.4038 25.608 36.6212 26.3778 37.2654 26.521C37.6235 26.6006 37.9626 26.6048 38.1907 26.4453C38.495 26.2317 38.6748 25.849 38.6601 25.4755C38.6412 25.2375 38.5385 24.9025 38.1375 24.671Z" fill="white"/>
</svg>
