<svg width="190" height="48" viewBox="0 0 190 48" fill="none" xmlns="http://www.w3.org/2000/svg">
<rect width="190" height="48" rx="5" fill="#171717"/>
<path d="M49.8281 18.2031V26.6318C49.8281 28.0322 49.3887 29.1396 48.5098 29.9541C47.6367 30.7686 46.4414 31.1758 44.9238 31.1758C43.4297 31.1758 42.2432 30.7803 41.3643 29.9893C40.4854 29.1982 40.0371 28.1113 40.0195 26.7285V18.2031H42.6562V26.6494C42.6562 27.4873 42.8555 28.0996 43.2539 28.4863C43.6582 28.8672 44.2148 29.0576 44.9238 29.0576C46.4062 29.0576 47.1592 28.2783 47.1826 26.7197V18.2031H49.8281ZM60.0238 26.333C60.0238 27.7979 59.6898 28.9727 59.0218 29.8574C58.3597 30.7363 57.4632 31.1758 56.3324 31.1758C55.3714 31.1758 54.5951 30.8418 54.0033 30.1738V34.6562H51.4632V21.4902H53.8187L53.9066 22.4219C54.5218 21.6836 55.3246 21.3145 56.3148 21.3145C57.4867 21.3145 58.3978 21.748 59.0482 22.6152C59.6986 23.4824 60.0238 24.6777 60.0238 26.2012V26.333ZM57.4838 26.1484C57.4838 25.2637 57.3255 24.5811 57.0091 24.1006C56.6986 23.6201 56.2445 23.3799 55.6468 23.3799C54.85 23.3799 54.3021 23.6846 54.0033 24.2939V28.1875C54.3138 28.8145 54.8675 29.1279 55.6644 29.1279C56.8773 29.1279 57.4838 28.1348 57.4838 26.1484ZM60.8767 26.1748C60.8767 24.7158 61.2224 23.541 61.9138 22.6504C62.6111 21.7598 63.5486 21.3145 64.7263 21.3145C65.7693 21.3145 66.5808 21.6719 67.1609 22.3867L67.2663 21.4902H69.5691V30.6836C69.5691 31.5156 69.3786 32.2393 68.9978 32.8545C68.6228 33.4697 68.0925 33.9385 67.407 34.2607C66.7214 34.583 65.9187 34.7441 64.9988 34.7441C64.3015 34.7441 63.6218 34.6035 62.9597 34.3223C62.2976 34.0469 61.7966 33.6895 61.4568 33.25L62.5818 31.7031C63.2146 32.4121 63.9821 32.7666 64.8845 32.7666C65.5583 32.7666 66.0827 32.585 66.4577 32.2217C66.8327 31.8643 67.0202 31.3545 67.0202 30.6924V30.1826C66.4343 30.8447 65.6638 31.1758 64.7087 31.1758C63.5661 31.1758 62.6404 30.7305 61.9314 29.8398C61.2282 28.9434 60.8767 27.7568 60.8767 26.2803V26.1748ZM63.4167 26.3594C63.4167 27.2207 63.5896 27.8975 63.9353 28.3896C64.281 28.876 64.7556 29.1191 65.3591 29.1191C66.1325 29.1191 66.6863 28.8291 67.0202 28.249V24.25C66.6804 23.6699 66.1325 23.3799 65.3767 23.3799C64.7673 23.3799 64.2868 23.6289 63.9353 24.127C63.5896 24.625 63.4167 25.3691 63.4167 26.3594ZM76.5128 23.8721C76.1671 23.8252 75.8624 23.8018 75.5987 23.8018C74.6378 23.8018 74.0079 24.127 73.7091 24.7773V31H71.169V21.4902H73.5684L73.6388 22.624C74.1485 21.751 74.8546 21.3145 75.7569 21.3145C76.0382 21.3145 76.3018 21.3525 76.5479 21.4287L76.5128 23.8721ZM82.6303 31C82.5131 30.7715 82.4282 30.4873 82.3754 30.1475C81.7602 30.833 80.9604 31.1758 79.976 31.1758C79.0444 31.1758 78.2709 30.9062 77.6557 30.3672C77.0463 29.8281 76.7416 29.1484 76.7416 28.3281C76.7416 27.3203 77.1137 26.5469 77.8579 26.0078C78.6079 25.4688 79.6889 25.1963 81.101 25.1904H82.27V24.6455C82.27 24.2061 82.1557 23.8545 81.9272 23.5908C81.7045 23.3271 81.35 23.1953 80.8637 23.1953C80.436 23.1953 80.0991 23.2979 79.853 23.5029C79.6127 23.708 79.4926 23.9893 79.4926 24.3467H76.9526C76.9526 23.7959 77.1225 23.2861 77.4623 22.8174C77.8022 22.3486 78.2827 21.9824 78.9038 21.7188C79.5248 21.4492 80.2221 21.3145 80.9955 21.3145C82.1674 21.3145 83.0961 21.6104 83.7817 22.2021C84.4731 22.7881 84.8188 23.6143 84.8188 24.6807V28.8027C84.8246 29.7051 84.9506 30.3877 85.1967 30.8506V31H82.6303ZM80.5297 29.2334C80.9047 29.2334 81.2504 29.1514 81.5668 28.9873C81.8832 28.8174 82.1176 28.5918 82.27 28.3105V26.6758H81.3207C80.0493 26.6758 79.3725 27.1152 79.2905 27.9941L79.2817 28.1436C79.2817 28.46 79.393 28.7207 79.6157 28.9258C79.8383 29.1309 80.143 29.2334 80.5297 29.2334ZM86.0145 26.1748C86.0145 24.6924 86.3455 23.5117 87.0076 22.6328C87.6756 21.7539 88.5867 21.3145 89.741 21.3145C90.6668 21.3145 91.4314 21.6602 92.035 22.3516V17.5H94.5838V31H92.2898L92.1668 29.9893C91.534 30.7803 90.7195 31.1758 89.7234 31.1758C88.6043 31.1758 87.7049 30.7363 87.0252 29.8574C86.3514 28.9727 86.0145 27.7451 86.0145 26.1748ZM88.5545 26.3594C88.5545 27.25 88.7098 27.9326 89.0203 28.4072C89.3309 28.8818 89.782 29.1191 90.3738 29.1191C91.159 29.1191 91.7127 28.7881 92.035 28.126V24.373C91.7186 23.7109 91.1707 23.3799 90.3914 23.3799C89.1668 23.3799 88.5545 24.373 88.5545 26.3594ZM100.569 31.1758C99.175 31.1758 98.0382 30.748 97.1593 29.8926C96.2863 29.0371 95.8498 27.8975 95.8498 26.4736V26.2275C95.8498 25.2725 96.0343 24.4199 96.4035 23.6699C96.7726 22.9141 97.2941 22.334 97.9679 21.9297C98.6476 21.5195 99.4211 21.3145 100.288 21.3145C101.589 21.3145 102.611 21.7246 103.356 22.5449C104.106 23.3652 104.481 24.5283 104.481 26.0342V27.0713H98.425C98.507 27.6924 98.7531 28.1904 99.1632 28.5654C99.5793 28.9404 100.104 29.1279 100.736 29.1279C101.715 29.1279 102.48 28.7734 103.03 28.0645L104.278 29.4619C103.898 30.001 103.382 30.4229 102.732 30.7275C102.081 31.0264 101.361 31.1758 100.569 31.1758ZM100.279 23.3711C99.7755 23.3711 99.3654 23.541 99.049 23.8809C98.7384 24.2207 98.5392 24.707 98.4513 25.3398H101.985V25.1377C101.973 24.5752 101.82 24.1416 101.528 23.8369C101.235 23.5264 100.819 23.3711 100.279 23.3711ZM117.559 25.7705H112.497V31H109.86V18.2031H118.192V20.3389H112.497V23.6436H117.559V25.7705ZM121.998 28.8818H127.597V31H119.362V18.2031H121.998V28.8818ZM138.707 24.8916C138.707 26.1514 138.484 27.2559 138.039 28.2051C137.593 29.1543 136.955 29.8867 136.123 30.4023C135.296 30.918 134.347 31.1758 133.275 31.1758C132.214 31.1758 131.268 30.9209 130.436 30.4111C129.604 29.9014 128.96 29.1748 128.503 28.2314C128.046 27.2822 127.814 26.1924 127.808 24.9619V24.3291C127.808 23.0693 128.034 21.9619 128.485 21.0068C128.942 20.0459 129.584 19.3105 130.41 18.8008C131.242 18.2852 132.191 18.0273 133.257 18.0273C134.324 18.0273 135.27 18.2852 136.096 18.8008C136.928 19.3105 137.57 20.0459 138.021 21.0068C138.478 21.9619 138.707 23.0664 138.707 24.3203V24.8916ZM136.035 24.3115C136.035 22.9697 135.795 21.9502 135.314 21.2529C134.834 20.5557 134.148 20.207 133.257 20.207C132.373 20.207 131.69 20.5527 131.21 21.2441C130.729 21.9297 130.486 22.9375 130.48 24.2676V24.8916C130.48 26.1982 130.72 27.2119 131.201 27.9326C131.681 28.6533 132.373 29.0137 133.275 29.0137C134.16 29.0137 134.839 28.668 135.314 27.9766C135.789 27.2793 136.029 26.2656 136.035 24.9355V24.3115ZM145.035 26.5439H140.087V24.4961H145.035V26.5439ZM149.518 26.4912V31H146.881V18.2031H151.873C152.834 18.2031 153.678 18.3789 154.405 18.7305C155.137 19.082 155.7 19.583 156.092 20.2334C156.485 20.8779 156.681 21.6133 156.681 22.4395C156.681 23.6934 156.25 24.6836 155.389 25.4102C154.534 26.1309 153.347 26.4912 151.829 26.4912H149.518ZM149.518 24.3555H151.873C152.571 24.3555 153.101 24.1914 153.464 23.8633C153.833 23.5352 154.018 23.0664 154.018 22.457C154.018 21.8301 153.833 21.3232 153.464 20.9365C153.095 20.5498 152.585 20.3506 151.935 20.3389H149.518V24.3555ZM160.944 31H158.307V18.2031H160.944V31ZM173.442 31H170.806L165.673 22.5801V31H163.036V18.2031H165.673L170.814 26.6406V18.2031H173.442V31Z" fill="white"/>
<path d="M24.0935 31.7875C21.6196 30.3592 22.0727 28.0499 22.7294 26.9124L22.9882 26.4642C23.0024 26.4397 22.9954 26.406 22.968 26.399C22.9639 26.3979 22.9591 26.3964 22.9553 26.3945C22.6874 26.2641 22.4139 26.1301 22.1811 25.9957C21.885 25.8248 21.6629 25.6965 21.6629 25.6965C21.6629 25.6965 21.6629 25.6965 21.6629 25.6965C21.2002 25.4294 21.0319 24.8375 21.2988 24.3752L21.7518 23.5906C21.9941 23.1709 22.3948 22.648 23.3503 22.2751C23.506 22.2162 23.6717 22.1693 23.8496 22.1348C24.1884 22.069 24.5027 21.889 24.6753 21.5901L25.1746 20.7254C25.1805 20.7151 25.177 20.7021 25.1668 20.6962C24.593 20.3649 24.3911 19.6319 24.7176 19.0663L24.974 18.6222C25.3006 18.0566 26.0364 17.865 26.6101 18.1962L31.6257 21.092C32.1995 21.4233 32.4014 22.1562 32.0749 22.7219L31.8185 23.1659C31.4919 23.7316 30.7561 23.9232 30.1824 23.5919C30.1722 23.586 30.1591 23.5896 30.1532 23.5998L29.6528 24.4666C29.4789 24.7678 29.4809 25.1332 29.5933 25.4623C29.6513 25.6321 29.6934 25.7988 29.7197 25.9606C29.8843 26.972 29.622 27.583 29.3797 28.0027L28.9302 28.7812C28.6668 29.2374 28.0728 29.3973 27.6039 29.1266L26.7217 28.6172C26.5305 28.5068 26.464 28.2657 26.5729 28.0772C26.6817 27.8886 26.9238 27.8256 27.115 27.936L28.0034 28.4489C28.0898 28.4988 28.1963 28.471 28.2454 28.3859L28.6984 27.6012C28.8881 27.2728 29.0643 26.8393 28.9407 26.0704C28.8926 25.7831 28.7732 25.4628 28.5781 25.1312C28.5083 25.0098 28.5099 24.8647 28.5801 24.743L29.6722 22.8514C29.7811 22.6628 30.0231 22.5998 30.2144 22.7102L30.5784 22.9203C30.7758 23.0343 31.0213 22.9652 31.1302 22.7767L31.3865 22.3326C31.4989 22.138 31.4263 21.8933 31.2351 21.7829L26.2194 18.8871C26.022 18.7732 25.7765 18.8423 25.6676 19.0308L25.4113 19.4748C25.2989 19.6695 25.3715 19.9142 25.5627 20.0246L25.9267 20.2347C26.118 20.3451 26.1844 20.5862 26.0756 20.7748L24.9834 22.6665C24.9132 22.7881 24.7883 22.862 24.6483 22.8623C24.26 22.8652 23.9264 22.9159 23.6536 23.0179C22.9259 23.2952 22.6386 23.6646 22.4489 23.9931L21.9959 24.7777C21.9468 24.8629 21.976 24.969 22.0624 25.0188C22.0624 25.0188 22.0624 25.0188 22.0624 25.0188C22.0624 25.0188 22.2845 25.1471 22.5806 25.318C22.7903 25.4391 23.0538 25.5669 23.3111 25.6912C23.3658 25.7227 23.4389 25.6978 23.4705 25.6431L24.049 24.6411C24.3518 24.1023 25.2785 23.2667 26.5308 23.9897C27.0799 24.3067 27.4171 24.8339 27.4507 25.4454C27.4888 26.0918 27.1843 26.7189 26.6584 27.0884C25.9899 27.5631 25.0451 27.337 24.2922 27.0311C23.9701 26.9003 23.5942 27.0103 23.4204 27.3114C23.3466 27.4391 22.9823 28.1128 23.011 28.9322C23.0451 29.8278 23.5402 30.5516 24.4903 31.1001C26.1067 32.0333 27.4754 31.7855 27.9252 31.7045C27.9604 31.7005 27.9894 31.693 28.015 31.6915C30.3705 31.3159 32.4056 29.9281 33.5891 27.8783C35.762 24.1289 34.4191 19.2742 30.6065 17.073C26.7939 14.8718 21.9181 16.1361 19.7479 19.8952C18.2273 22.5289 18.3904 25.8509 20.1591 28.3724C20.2862 28.5512 20.2443 28.7947 20.0658 28.9187C19.8873 29.0427 19.6415 28.9982 19.5144 28.8193C18.5692 27.4788 18.0216 25.9056 17.9255 24.2768C17.8285 22.6069 18.2237 20.9535 19.0631 19.4998C21.4511 15.3637 26.8047 13.9697 30.9998 16.3917C35.1949 18.8138 36.6645 24.1471 34.2765 28.2833C32.9772 30.5338 30.7433 32.0664 28.1475 32.4736C28.1281 32.4786 28.1026 32.4801 28.0735 32.4877C26.6758 32.7431 25.3397 32.5069 24.0935 31.7875ZM26.1375 24.671C25.3047 24.1901 24.8532 24.8297 24.7338 25.0365C24.4038 25.608 24.6212 26.3778 25.2654 26.521C25.6235 26.6006 25.9626 26.6048 26.1907 26.4453C26.495 26.2317 26.6748 25.849 26.6601 25.4755C26.6412 25.2375 26.5385 24.9025 26.1375 24.671Z" fill="white"/>
</svg>
