<svg width="750" height="60" viewBox="0 0 750 60" fill="none" xmlns="http://www.w3.org/2000/svg">
<rect y="2.36914" width="750" height="55" rx="5" fill="#171717"/>
<path d="M705.559 50.688C699.222 47.0292 700.382 41.1137 702.065 38.2L702.727 37.0519C702.764 36.989 702.746 36.9028 702.676 36.8847C702.665 36.882 702.653 36.8781 702.643 36.8734C701.957 36.5392 701.256 36.196 700.66 35.8518C699.901 35.4138 699.333 35.0853 699.333 35.0853C698.147 34.401 697.716 32.8849 698.4 31.7007L699.56 29.6907C700.181 28.6156 701.207 27.2761 703.655 26.321C704.054 26.1699 704.478 26.05 704.934 25.9615C705.802 25.793 706.607 25.332 707.049 24.5663L708.328 22.3511C708.343 22.3249 708.334 22.2914 708.308 22.2763C706.838 21.4278 706.321 19.5502 707.158 18.1011L707.814 16.9637C708.651 15.5146 710.536 15.0239 712.005 15.8724L724.854 23.2903C726.323 24.1389 726.841 26.0165 726.004 27.4655L725.347 28.603C724.511 30.052 722.626 30.5427 721.156 29.6942C721.13 29.6791 721.097 29.6881 721.082 29.7142L719.8 31.9346C719.354 32.7062 719.359 33.6423 719.647 34.4854C719.796 34.9203 719.904 35.3474 719.971 35.7617C720.393 38.3527 719.721 39.9177 719.1 40.9928L717.949 42.9872C717.274 44.1558 715.752 44.5653 714.551 43.8718L712.291 42.5671C711.801 42.2842 711.631 41.6666 711.91 41.1836C712.189 40.7006 712.809 40.5392 713.299 40.822L715.575 42.1359C715.796 42.2636 716.069 42.1926 716.195 41.9744L717.355 39.9645C717.841 39.1231 718.292 38.0126 717.975 36.0431C717.852 35.3072 717.547 34.4866 717.047 33.6371C716.868 33.3262 716.872 32.9545 717.052 32.6428L719.85 27.7971C720.128 27.3141 720.748 27.1526 721.238 27.4355L722.171 27.9738C722.676 28.2658 723.305 28.0888 723.584 27.6058L724.241 26.4683C724.529 25.9697 724.343 25.343 723.853 25.0601L711.005 17.6422C710.499 17.3503 709.87 17.5273 709.591 18.0103L708.935 19.1477C708.647 19.6463 708.833 20.2731 709.323 20.5559L710.255 21.0943C710.745 21.3771 710.915 21.9947 710.636 22.4777L707.838 27.3235C707.659 27.6351 707.339 27.8244 706.98 27.8251C705.985 27.8325 705.131 27.9623 704.432 28.2237C702.568 28.9341 701.832 29.8804 701.346 30.7218L700.186 32.7317C700.06 32.9499 700.135 33.2216 700.356 33.3494C700.356 33.3494 700.925 33.6778 701.683 34.1158C702.221 34.426 702.896 34.7534 703.555 35.0716C703.695 35.1524 703.882 35.0885 703.963 34.9485L705.445 32.3818C706.221 31.0015 708.594 28.861 711.802 30.7132C713.209 31.5252 714.073 32.8757 714.159 34.442C714.256 36.0979 713.476 37.7044 712.129 38.6509C710.417 39.8668 707.996 39.2876 706.068 38.5041C705.243 38.1689 704.28 38.4508 703.835 39.2219C703.646 39.5491 702.713 41.2749 702.786 43.374C702.873 45.6681 704.142 47.5222 706.575 48.9273C710.716 51.3178 714.222 50.6829 715.374 50.4756C715.464 50.4653 715.539 50.446 715.604 50.4422C721.638 49.4801 726.851 45.925 729.883 40.6742C735.449 31.0697 732.009 18.6338 722.243 12.9951C712.476 7.35641 699.986 10.5952 694.427 20.2244C690.532 26.9711 690.95 35.4808 695.48 41.94C695.806 42.398 695.699 43.0217 695.241 43.3393C694.784 43.657 694.155 43.5429 693.829 43.0848C691.408 39.6509 690.005 35.6209 689.759 31.4485C689.51 27.1708 690.523 22.9355 692.673 19.2116C698.79 8.61641 712.504 5.04562 723.25 11.25C733.997 17.4544 737.761 31.1164 731.644 41.7116C728.315 47.4767 722.593 51.4026 715.944 52.4456C715.894 52.4585 715.829 52.4623 715.754 52.4816C712.174 53.1359 708.751 52.5311 705.559 50.688ZM710.795 32.4583C708.661 31.2265 707.505 32.8648 707.199 33.3946C706.354 34.8586 706.911 36.8305 708.561 37.1974C709.478 37.4013 710.347 37.412 710.931 37.0035C711.711 36.4563 712.171 35.4758 712.134 34.5192C712.085 33.9096 711.822 33.0513 710.795 32.4583Z" fill="#CE4141"/>
<path d="M37.2188 34.9863L40.6641 16.7754H45.9199L40.2422 42.3691H34.9336L30.7676 25.248L26.6016 42.3691H21.293L15.6152 16.7754H20.8711L24.334 34.9512L28.5527 16.7754H33.0176L37.2188 34.9863ZM52.6882 25.4238C54.0359 23.8066 55.7292 22.998 57.7683 22.998C61.8933 22.998 63.9851 25.3945 64.0437 30.1875V42.3691H58.9636V30.3281C58.9636 29.2383 58.7292 28.4355 58.2605 27.9199C57.7917 27.3926 57.0124 27.1289 55.9226 27.1289C54.4343 27.1289 53.3562 27.7031 52.6882 28.8516V42.3691H47.6081V15.3691H52.6882V25.4238ZM78.1772 42.3691C77.9428 41.9121 77.7729 41.3438 77.6674 40.6641C76.437 42.0352 74.8373 42.7207 72.8686 42.7207C71.0053 42.7207 69.4584 42.1816 68.228 41.1035C67.0092 40.0254 66.3998 38.666 66.3998 37.0254C66.3998 35.0098 67.144 33.4629 68.6323 32.3848C70.1323 31.3066 72.2944 30.7617 75.1186 30.75H77.4565V29.6602C77.4565 28.7812 77.228 28.0781 76.7709 27.5508C76.3256 27.0234 75.6166 26.7598 74.644 26.7598C73.7885 26.7598 73.1147 26.9648 72.6225 27.375C72.142 27.7852 71.9018 28.3477 71.9018 29.0625H66.8217C66.8217 27.9609 67.1616 26.9414 67.8413 26.0039C68.5209 25.0664 69.4819 24.334 70.7241 23.8066C71.9663 23.2676 73.3608 22.998 74.9077 22.998C77.2514 22.998 79.1088 23.5898 80.4799 24.7734C81.8627 25.9453 82.5541 27.5977 82.5541 29.7305V37.9746C82.5659 39.7793 82.8178 41.1445 83.31 42.0703V42.3691H78.1772ZM73.976 38.8359C74.726 38.8359 75.4174 38.6719 76.0502 38.3438C76.683 38.0039 77.1518 37.5527 77.4565 36.9902V33.7207H75.558C73.0151 33.7207 71.6616 34.5996 71.4975 36.3574L71.4799 36.6562C71.4799 37.2891 71.7026 37.8105 72.1479 38.2207C72.5932 38.6309 73.2026 38.8359 73.976 38.8359ZM91.8185 18.6738V23.3496H95.0705V27.0762H91.8185V36.5684C91.8185 37.2715 91.9533 37.7754 92.2228 38.0801C92.4923 38.3848 93.008 38.5371 93.7697 38.5371C94.3322 38.5371 94.8302 38.4961 95.2638 38.4141V42.2637C94.2677 42.5684 93.2423 42.7207 92.1877 42.7207C88.6252 42.7207 86.8087 40.9219 86.7384 37.3242V27.0762H83.9611V23.3496H86.7384V18.6738H91.8185ZM110.787 42.3691H105.689V23.3496H110.787V42.3691ZM105.39 18.4277C105.39 17.666 105.642 17.0391 106.146 16.5469C106.662 16.0547 107.359 15.8086 108.238 15.8086C109.105 15.8086 109.796 16.0547 110.312 16.5469C110.828 17.0391 111.086 17.666 111.086 18.4277C111.086 19.2012 110.822 19.834 110.295 20.3262C109.779 20.8184 109.093 21.0645 108.238 21.0645C107.382 21.0645 106.691 20.8184 106.164 20.3262C105.648 19.834 105.39 19.2012 105.39 18.4277ZM124.569 37.1133C124.569 36.4922 124.258 36.0059 123.637 35.6543C123.028 35.291 122.043 34.9688 120.684 34.6875C116.16 33.7383 113.899 31.8164 113.899 28.9219C113.899 27.2344 114.596 25.8281 115.991 24.7031C117.397 23.5664 119.231 22.998 121.493 22.998C123.907 22.998 125.834 23.5664 127.276 24.7031C128.729 25.8398 129.455 27.3164 129.455 29.1328H124.375C124.375 28.4062 124.141 27.8086 123.672 27.3398C123.203 26.8594 122.471 26.6191 121.475 26.6191C120.619 26.6191 119.957 26.8125 119.489 27.1992C119.02 27.5859 118.785 28.0781 118.785 28.6758C118.785 29.2383 119.049 29.6953 119.576 30.0469C120.116 30.3867 121.018 30.6855 122.284 30.9434C123.549 31.1895 124.616 31.4707 125.483 31.7871C128.166 32.7715 129.508 34.4766 129.508 36.9023C129.508 38.6367 128.764 40.043 127.276 41.1211C125.787 42.1875 123.866 42.7207 121.51 42.7207C119.916 42.7207 118.498 42.4395 117.256 41.877C116.026 41.3027 115.059 40.5234 114.356 39.5391C113.653 38.543 113.301 37.4707 113.301 36.3223H118.118C118.164 37.2246 118.498 37.916 119.119 38.3965C119.741 38.877 120.573 39.1172 121.616 39.1172C122.588 39.1172 123.321 38.9355 123.813 38.5723C124.317 38.1973 124.569 37.7109 124.569 37.1133ZM145.927 33.3516V42.3691H140.654V16.7754H150.638C152.56 16.7754 154.248 17.127 155.701 17.8301C157.166 18.5332 158.291 19.5352 159.076 20.8359C159.861 22.125 160.254 23.5957 160.254 25.248C160.254 27.7559 159.392 29.7363 157.67 31.1895C155.959 32.6309 153.586 33.3516 150.551 33.3516H145.927ZM145.927 29.0801H150.638C152.033 29.0801 153.094 28.752 153.82 28.0957C154.558 27.4395 154.927 26.502 154.927 25.2832C154.927 24.0293 154.558 23.0156 153.82 22.2422C153.082 21.4688 152.062 21.0703 150.761 21.0469H145.927V29.0801ZM168.78 42.3691H163.506V16.7754H168.78V42.3691ZM193.777 42.3691H188.503L178.238 25.5293V42.3691H172.964V16.7754H178.238L188.521 33.6504V16.7754H193.777V42.3691ZM201.476 34.5117C201.476 32.8711 201.676 31.5645 202.074 30.5918C202.473 29.6191 203.199 28.6641 204.254 27.7266C205.32 26.7773 206.029 26.0098 206.381 25.4238C206.732 24.8262 206.908 24.1992 206.908 23.543C206.908 21.5625 205.994 20.5723 204.166 20.5723C203.299 20.5723 202.601 20.8418 202.074 21.3809C201.559 21.9082 201.289 22.6406 201.266 23.5781H196.168C196.191 21.3398 196.912 19.5879 198.33 18.3223C199.76 17.0566 201.705 16.4238 204.166 16.4238C206.65 16.4238 208.578 17.0273 209.949 18.2344C211.32 19.4297 212.006 21.123 212.006 23.3145C212.006 24.3105 211.783 25.2539 211.338 26.1445C210.893 27.0234 210.113 28.002 209 29.0801L207.576 30.4336C206.685 31.2891 206.176 32.291 206.047 33.4395L205.976 34.5117H201.476ZM200.967 39.9082C200.967 39.123 201.23 38.4785 201.758 37.9746C202.297 37.459 202.982 37.2012 203.814 37.2012C204.646 37.2012 205.326 37.459 205.853 37.9746C206.393 38.4785 206.662 39.123 206.662 39.9082C206.662 40.6816 206.398 41.3203 205.871 41.8242C205.355 42.3281 204.67 42.5801 203.814 42.5801C202.959 42.5801 202.268 42.3281 201.74 41.8242C201.225 41.3203 200.967 40.6816 200.967 39.9082Z" fill="white"/>
<line x1="15" y1="48.8691" x2="358" y2="48.8691" stroke="url(#paint0_linear)"/>
<defs>
<linearGradient id="paint0_linear" x1="15" y1="49.3691" x2="364.191" y2="49.3691" gradientUnits="userSpaceOnUse">
<stop stop-color="#CE4141"/>
<stop offset="1" stop-color="#CE4141" stop-opacity="0"/>
</linearGradient>
</defs>
</svg>
